<mxfile host="app.diagrams.net" agent="Mozilla/5.0 (Macintosh; Intel Mac OS X 10_15_7) AppleWebKit/537.36 (KHTML, like Gecko) Chrome/139.0.0.0 Safari/537.36" version="28.1.1">
  <diagram name="Sayfa -1" id="enwm7ZU6S7UFEllHOVOr">
    <mxGraphModel grid="1" page="1" gridSize="10" guides="1" tooltips="1" connect="1" arrows="1" fold="1" pageScale="1" pageWidth="827" pageHeight="1169" math="0" shadow="0">
      <root>
        <mxCell id="0" />
        <mxCell id="1" parent="0" />
        <mxCell id="mYfDCjEah4zanlxFNCv0-4" style="edgeStyle=orthogonalEdgeStyle;rounded=0;orthogonalLoop=1;jettySize=auto;html=1;entryX=0.5;entryY=0;entryDx=0;entryDy=0;" edge="1" parent="1" source="mYfDCjEah4zanlxFNCv0-1" target="mYfDCjEah4zanlxFNCv0-3">
          <mxGeometry relative="1" as="geometry" />
        </mxCell>
        <mxCell id="mYfDCjEah4zanlxFNCv0-1" value="Başla" style="ellipse;whiteSpace=wrap;html=1;" vertex="1" parent="1">
          <mxGeometry x="358" y="220" width="120" height="80" as="geometry" />
        </mxCell>
        <mxCell id="mYfDCjEah4zanlxFNCv0-2" value="Dur" style="ellipse;whiteSpace=wrap;html=1;" vertex="1" parent="1">
          <mxGeometry x="358" y="950" width="120" height="80" as="geometry" />
        </mxCell>
        <mxCell id="mYfDCjEah4zanlxFNCv0-7" style="edgeStyle=orthogonalEdgeStyle;rounded=0;orthogonalLoop=1;jettySize=auto;html=1;" edge="1" parent="1" source="mYfDCjEah4zanlxFNCv0-3" target="mYfDCjEah4zanlxFNCv0-6">
          <mxGeometry relative="1" as="geometry" />
        </mxCell>
        <mxCell id="mYfDCjEah4zanlxFNCv0-3" value="Alarm Çalar" style="rounded=0;whiteSpace=wrap;html=1;" vertex="1" parent="1">
          <mxGeometry x="358" y="390" width="120" height="60" as="geometry" />
        </mxCell>
        <mxCell id="mYfDCjEah4zanlxFNCv0-9" style="edgeStyle=orthogonalEdgeStyle;rounded=0;orthogonalLoop=1;jettySize=auto;html=1;entryX=0.5;entryY=0;entryDx=0;entryDy=0;" edge="1" parent="1" source="mYfDCjEah4zanlxFNCv0-6" target="mYfDCjEah4zanlxFNCv0-8">
          <mxGeometry relative="1" as="geometry" />
        </mxCell>
        <mxCell id="mYfDCjEah4zanlxFNCv0-12" style="edgeStyle=orthogonalEdgeStyle;rounded=0;orthogonalLoop=1;jettySize=auto;html=1;entryX=1;entryY=0.5;entryDx=0;entryDy=0;" edge="1" parent="1" source="mYfDCjEah4zanlxFNCv0-6" target="mYfDCjEah4zanlxFNCv0-11">
          <mxGeometry relative="1" as="geometry" />
        </mxCell>
        <mxCell id="mYfDCjEah4zanlxFNCv0-6" value="Uyanmaya Hazırmısın?" style="rhombus;whiteSpace=wrap;html=1;" vertex="1" parent="1">
          <mxGeometry x="360" y="570" width="116" height="140" as="geometry" />
        </mxCell>
        <mxCell id="mYfDCjEah4zanlxFNCv0-18" style="edgeStyle=orthogonalEdgeStyle;rounded=0;orthogonalLoop=1;jettySize=auto;html=1;entryX=0.5;entryY=0;entryDx=0;entryDy=0;" edge="1" parent="1" source="mYfDCjEah4zanlxFNCv0-8" target="mYfDCjEah4zanlxFNCv0-2">
          <mxGeometry relative="1" as="geometry" />
        </mxCell>
        <mxCell id="mYfDCjEah4zanlxFNCv0-8" value="Yataktan kalk" style="rounded=0;whiteSpace=wrap;html=1;" vertex="1" parent="1">
          <mxGeometry x="358" y="800" width="120" height="60" as="geometry" />
        </mxCell>
        <mxCell id="mYfDCjEah4zanlxFNCv0-16" style="edgeStyle=orthogonalEdgeStyle;rounded=0;orthogonalLoop=1;jettySize=auto;html=1;entryX=0.5;entryY=1;entryDx=0;entryDy=0;" edge="1" parent="1" source="mYfDCjEah4zanlxFNCv0-11" target="mYfDCjEah4zanlxFNCv0-15">
          <mxGeometry relative="1" as="geometry" />
        </mxCell>
        <mxCell id="mYfDCjEah4zanlxFNCv0-11" value="5 dk Ertele" style="rounded=0;whiteSpace=wrap;html=1;" vertex="1" parent="1">
          <mxGeometry x="170" y="610" width="120" height="60" as="geometry" />
        </mxCell>
        <mxCell id="mYfDCjEah4zanlxFNCv0-17" style="edgeStyle=orthogonalEdgeStyle;rounded=0;orthogonalLoop=1;jettySize=auto;html=1;" edge="1" parent="1" source="mYfDCjEah4zanlxFNCv0-15">
          <mxGeometry relative="1" as="geometry">
            <mxPoint x="420" y="510" as="targetPoint" />
          </mxGeometry>
        </mxCell>
        <mxCell id="mYfDCjEah4zanlxFNCv0-15" value="" style="shape=orEllipse;perimeter=ellipsePerimeter;whiteSpace=wrap;html=1;backgroundOutline=1;" vertex="1" parent="1">
          <mxGeometry x="200" y="480" width="60" height="60" as="geometry" />
        </mxCell>
        <mxCell id="mYfDCjEah4zanlxFNCv0-19" value="Örnek Akış Şeması 2" style="text;html=1;align=center;verticalAlign=middle;whiteSpace=wrap;rounded=0;fontSize=19;" vertex="1" parent="1">
          <mxGeometry x="144" y="30" width="540" height="110" as="geometry" />
        </mxCell>
      </root>
    </mxGraphModel>
  </diagram>
</mxfile>
